:FULLY-SPECIFIED
:FORCE-ALL-JOINTS-BE-3DOF
:DEGREES
611
root 5.67847 16.688 -3.75234 0.490127 52.8027 -7.42726
lfemur -17.6191 24.944 -22.2648
ltibia 39.939 -0 0
lfoot -33.3084 24.0866 -0.0601193
ltoes 18.4006 -0 0
rfemur -51.7073 -17.4301 26.0863
rtibia 61.339 -0 0
rfoot 9.18943 28.7558 -0.00399965
rtoes -10.4982 0 0
lowerback 3.2519 -3.19626 -4.87506
upperback 0.101975 -4.41575 1.25407
thorax -1.25622 -2.17784 4.19352
lowerneck -8.40569 -9.39373 -0.644466
upperneck 14.8405 -13.3509 4.46039
head 6.25995 -6.15658 0.440885
lclavicle 2.2413e-014 1.98785e-014 0
lhumerus -22.1718 -41.4295 93.0099
lradius 57.437 -0 0
lwrist 21.7573 0 0
lhand -12.291 -0.402027 -0.00471913
lfingers 7.12502 -0 0
lthumb 13.7765 29.1205 -0.0048405
rclavicle 2.2413e-014 1.98785e-014 0
rhumerus 21.6954 4.1804 -71.8024
rradius 117.946 -0 0
rwrist -57.7362 0 0
rhand -28.4553 -24.6024 0.0178315
rfingers 7.12502 -0 0
rthumb -1.82565 -54.5719 0.0171301
612
root 5.6827 16.708 -3.77194 0.980356 51.0383 -7.02325
lfemur -17.4359 25.0828 -22.581
ltibia 39.4672 -0 0
lfoot -33.759 24.5963 -0.0601193
ltoes 20.18 -0 0
rfemur -51.9592 -17.6056 25.7793
rtibia 62.9617 -0 0
rfoot 9.45106 28.6975 -0.00399965
rtoes -10.7892 0 0
lowerback 3.1606 -3.29204 -4.69398
upperback -0.012356 -4.5348 1.27729
thorax -1.3224 -2.23444 4.11816
lowerneck -8.58791 -9.16575 -0.464264
upperneck 14.9471 -13.0237 4.12855
head 6.28065 -6.00875 0.329874
lclavicle 2.2413e-014 1.98785e-014 0
lhumerus -22.1718 -42.133 93.5455
lradius 57.9306 -0 0
lwrist 21.529 0 0
lhand -12.1582 -0.537838 -0.00471913
lfingers 7.12502 -0 0
lthumb 13.9044 28.976 -0.0048405
rclavicle 2.2413e-014 1.98785e-014 0
rhumerus 21.3334 3.73823 -71.5965
rradius 116.623 -0 0
rwrist -57.8753 0 0
rhand -28.6575 -24.9394 0.0178315
rfingers 7.12502 -0 0
rthumb -2.02087 -54.9071 0.0171301
613
root 5.68692 16.7281 -3.79153 1.43374 49.2719 -6.65704
lfemur -17.2534 25.2225 -22.8971
ltibia 38.9954 -0 0
lfoot -34.2097 25.106 -0.05611
ltoes 21.9595 -0 0
rfemur -52.2103 -17.7823 25.4728
rtibia 64.5845 -0 0
rfoot 9.71269 28.6391 -0.00373299
rtoes -11.0801 0 0
lowerback 3.06899 -3.38754 -4.51273
upperback -0.126754 -4.6538 1.30076
thorax -1.38851 -2.29114 4.04287
lowerneck -8.7693 -8.93721 -0.284911
upperneck 15.0517 -12.6959 3.79777
head 6.30106 -5.86087 0.218947
lclavicle 2.2413e-014 1.98785e-014 0
lhumerus -22.1809 -42.8365 94.0871
lradius 58.4241 -0 0
lwrist 21.3008 0 0
lhand -12.0255 -0.673648 -0.00440452
lfingers 7.12502 -0 0
lthumb 14.0323 28.8314 -0.00451779
rclavicle 2.2413e-014 1.98785e-014 0
rhumerus 20.97 3.29737 -71.388
rradius 115.301 -0 0
rwrist -58.0143 0 0
rhand -28.8596 -25.2764 0.0166426
rfingers 7.12502 -0 0
rthumb -2.21609 -55.2423 0.0159879
614
root 5.69114 16.7481 -3.81112 1.85492 47.5038 -6.32402
lfemur -17.0714 25.3632 -23.2131
ltibia 38.5236 -0 0
lfoot -34.6603 25.6157 -0.048092
ltoes 23.7389 -0 0
rfemur -52.4608 -17.9603 25.1668
rtibia 66.2072 -0 0
rfoot 9.97432 28.5807 -0.00319969
rtoes -11.3711 0 0
lowerback 2.97706 -3.48275 -4.3313
upperback -0.241221 -4.77276 1.32447
thorax -1.45455 -2.34792 3.96764
lowerneck -8.94985 -8.70811 -0.106402
upperneck 15.1542 -12.3675 3.46802
head 6.32118 -5.71296 0.108102
lclavicle 2.2413e-014 1.98785e-014 0
lhumerus -22.1991 -43.5398 94.6351
lradius 58.9177 -0 0
lwrist 21.0726 0 0
lhand -11.8928 -0.809457 -0.00377529
lfingers 7.12502 -0 0
lthumb 14.1603 28.6869 -0.00387238
rclavicle 2.2413e-014 1.98785e-014 0
rhumerus 20.6052 2.85784 -71.1767
rradius 113.979 -0 0
rwrist -58.1534 0 0
rhand -29.0617 -25.6134 0.0142649
rfingers 7.12502 -0 0
rthumb -2.4113 -55.5775 0.0137037
615
root 5.69536 16.7681 -3.83071 2.24784 45.7341 -6.02034
lfemur -16.8902 25.5047 -23.529
ltibia 38.0519 -0 0
lfoot -35.1108 26.1253 -0.0360665
ltoes 25.5183 -0 0
rfemur -52.7104 -18.1396 24.8613
rtibia 67.83 -0 0
rfoot 10.2359 28.5223 -0.00239974
rtoes -11.6621 0 0
lowerback 2.88483 -3.57767 -4.14971
upperback -0.355758 -4.89167 1.34842
thorax -1.52052 -2.40479 3.89247
lowerneck -9.12957 -8.47846 0.0712688
upperneck 15.2547 -12.0386 3.13928
head 6.34101 -5.56501 -0.00266338
lclavicle 2.2413e-014 1.98785e-014 0
lhumerus -22.227 -44.243 95.19
lradius 59.4112 -0 0
lwrist 20.8444 0 0
lhand -11.76 -0.945264 -0.00283145
lfingers 7.12502 -0 0
lthumb 14.2882 28.5424 -0.00290427
rclavicle 2.2413e-014 1.98785e-014 0
rhumerus 20.2389 2.41967 -70.9628
rradius 112.657 -0 0
rwrist -58.2924 0 0
rhand -29.2639 -25.9503 0.0106984
rfingers 7.12502 -0 0
rthumb -2.6065 -55.9127 0.0102776
